PathFileType	4	(X/Y/Z)	TVC_41_BWA_02_walk_RCNL2025.trc
DataRate	CameraRate	NumFrames	NumMarkers	Units	OrigDataRate	OrigDataStartFrame	OrigNumFrames
100	100	8	27	mm	100	200	531
Frame#	Time	R_Shoulder			L_Shoulder			C7			J_Notch			R_Elbow			L_Elbow			R_Wrist			L_Wrist			R_Asis			L_Asis			R_Psis			L_Psis			Sacral			Thoracic			Sternum			R_Thigh_Lateral			R_Knee_Lateral			R_Shank_Lateral			R_Ankle_Lateral			R_Heel			R_Toe			L_Thigh_Lateral			L_Knee_Lateral			L_Shank_Lateral			L_Ankle_Lateral			L_Heel			L_Toe		
		X1	Y1	Z1	X2	Y2	Z2	X3	Y3	Z3	X4	Y4	Z4	X5	Y5	Z5	X6	Y6	Z6	X7	Y7	Z7	X8	Y8	Z8	X9	Y9	Z9	X10	Y10	Z10	X11	Y11	Z11	X12	Y12	Z12	X13	Y13	Z13	X14	Y14	Z14	X15	Y15	Z15	X16	Y16	Z16	X17	Y17	Z17	X18	Y18	Z18	X19	Y19	Z19	X20	Y20	Z20	X21	Y21	Z21	X22	Y22	Z22	X23	Y23	Z23	X24	Y24	Z24	X25	Y25	Z25	X26	Y26	Z26	X27	Y27	Z27
200	1.99000000	-1086.889893	1260.465820	-64.338196	-974.611023	1281.351440	-381.369812	-1079.076172	1330.413086	-231.105942	-965.329956	1221.533691	-195.862213	-1215.296143	993.263794	-74.917450	-1006.776428	995.300110	-470.231567	-1030.570679	915.040375	-47.686643	-904.850800	813.985016	-463.313889	-1050.978516	899.915161	-104.216942	-981.998108	861.138672	-336.836365	-1187.644653	892.020752	-220.775894	-1168.080933	875.069824	-304.715240	-1177.862793	883.545288	-262.745567	-1133.080322	1042.041504	-277.085571	-944.931580	1038.987793	-209.938049	-1076.264404	689.065063	-2.745151	-1072.830933	448.272797	-54.475647	-1142.538452	333.101959	12.811288	-1172.263184	121.135002	-38.677921	-1211.760254	105.781990	-95.285286	-1081.865723	50.884964	-12.309179	-1040.803223	589.299744	-425.371979	-1019.381287	404.394531	-326.616516	-1047.438477	264.427490	-380.556458	-1088.215332	61.393852	-302.275269	-1134.219971	43.187489	-262.816956	-966.510803	37.543400	-276.009827
201	2.00000000	-1085.348999	1260.580566	-65.374245	-974.526428	1281.276367	-382.997284	-1078.406616	1330.299927	-232.304230	-964.283386	1221.693848	-197.393494	-1213.196533	993.112305	-74.993881	-1007.325439	995.185669	-471.510559	-1028.008484	915.383942	-48.323637	-905.582916	813.687683	-465.492172	-1048.916626	900.108826	-104.976631	-980.995850	861.336487	-337.959229	-1186.210083	891.592285	-220.833191	-1167.168945	874.693909	-304.852692	-1176.689514	883.143097	-262.842941	-1132.228394	1041.826172	-277.644226	-943.644897	1039.170898	-211.415390	-1073.543335	689.681946	-2.777496	-1069.047241	448.814911	-53.537426	-1137.775146	333.587097	14.636360	-1166.499390	121.219078	-35.759922	-1206.235474	105.452591	-91.944763	-1075.593262	51.250626	-9.830111	-1040.194092	589.143738	-425.901642	-1019.107056	404.269653	-327.029694	-1047.394897	264.281036	-380.739441	-1088.213745	61.359104	-302.232147	-1134.141846	43.162029	-262.694061	-966.505005	37.538548	-276.179016
202	2.01000000	-1083.784302	1260.692383	-66.353386	-974.432678	1281.172607	-384.569427	-1077.723145	1330.174072	-233.450363	-963.227051	1221.835938	-198.874664	-1211.006836	992.922668	-75.014442	-1007.884155	995.043091	-472.725861	-1025.187256	915.777527	-49.045257	-906.375183	813.342499	-467.603058	-1046.887207	900.283936	-105.675629	-979.996094	861.511292	-338.998566	-1184.795288	891.178345	-220.863770	-1166.227539	874.319641	-304.948395	-1175.511414	882.748993	-262.906082	-1131.371826	1041.600830	-278.135590	-942.357239	1039.334839	-212.833374	-1071.024658	690.290771	-2.746971	-1065.218262	449.368469	-52.546940	-1132.810913	334.029510	16.524504	-1160.352783	121.248299	-32.777172	-1200.315918	105.023796	-88.510086	-1068.839233	51.659817	-7.314993	-1039.516113	588.968384	-426.360962	-1018.786560	404.139191	-327.358429	-1047.289551	264.131653	-380.867035	-1088.181152	61.326164	-302.145172	-1134.059082	43.147392	-262.547791	-966.482483	37.531105	-276.312317
203	2.02000000	-1082.198364	1260.802612	-67.277557	-974.324768	1281.041260	-386.084778	-1077.023682	1330.037476	-234.545410	-962.160767	1221.961060	-200.304565	-1208.739868	992.700134	-74.986694	-1008.444397	994.873779	-473.878235	-1022.102417	916.232208	-49.870918	-907.221130	812.950378	-469.643768	-1044.891113	900.444031	-106.313293	-979.000122	861.660645	-339.953857	-1183.399536	890.778503	-220.867050	-1165.258179	873.946106	-305.002228	-1174.328857	882.362305	-262.934639	-1130.509644	1041.367554	-278.562592	-941.068970	1039.480835	-214.190399	-1068.676025	690.891113	-2.653836	-1061.329956	449.934021	-51.510361	-1127.644775	334.433411	18.459547	-1153.836182	121.233391	-29.755440	-1194.012085	104.512794	-85.015869	-1061.624878	52.122623	-4.782576	-1038.767944	588.773132	-426.745087	-1018.421082	404.002411	-327.601257	-1047.122437	263.978821	-380.938293	-1088.117554	61.295395	-302.012054	-1133.973877	43.144329	-262.376129	-966.442993	37.520973	-276.405731
204	2.03000000	-1080.593994	1260.912109	-68.148613	-974.198486	1280.883545	-387.542175	-1076.306763	1329.892090	-235.590347	-961.084229	1222.070679	-201.682098	-1206.409790	992.451111	-74.917114	-1008.998596	994.679199	-474.968109	-1018.759888	916.756134	-50.813699	-908.114288	812.512543	-471.611542	-1042.928589	900.592163	-106.889046	-978.008972	861.782532	-340.825195	-1182.021851	890.392151	-220.841354	-1164.262939	873.572632	-305.013489	-1173.142395	881.982391	-262.927422	-1129.640869	1041.127930	-278.927826	-939.780640	1039.610596	-215.485001	-1066.460571	691.482300	-2.499342	-1057.369507	450.511810	-50.434525	-1122.281982	334.803741	20.423426	-1146.967041	121.185524	-26.721676	-1187.338013	103.937477	-81.499489	-1053.977295	52.649273	-2.250327	-1037.951050	588.557861	-427.050201	-1018.012207	403.858734	-327.757812	-1046.894775	263.822174	-380.952850	-1088.024536	61.267136	-301.831482	-1133.887939	43.152493	-262.176910	-966.387390	37.508545	-276.456360
205	2.04000000	-1078.973877	1261.021973	-68.968315	-974.050293	1280.700562	-388.940643	-1075.570923	1329.739990	-236.586121	-959.997192	1222.165894	-203.006287	-1204.032104	992.182251	-74.810997	-1009.540283	994.460693	-475.995697	-1015.179047	917.352692	-51.878636	-909.048462	812.030396	-473.503815	-1040.999146	900.730835	-107.402405	-977.023376	861.875488	-341.613312	-1180.660278	890.018433	-220.784012	-1163.243896	873.198547	-304.980713	-1171.952087	881.608490	-262.882362	-1128.764526	1040.883301	-279.233582	-938.492310	1039.725342	-216.715820	-1064.338623	692.063354	-2.285511	-1053.325928	451.101807	-49.326771	-1116.733276	335.145630	22.396923	-1139.766724	121.115952	-23.703257	-1180.310913	103.315880	-77.999702	-1045.928467	53.249599	0.265673	-1037.070435	588.323303	-427.273743	-1017.562134	403.707550	-327.828949	-1046.608521	263.661560	-380.910889	-1087.904663	61.241657	-301.603271	-1133.803101	43.170547	-261.947998	-966.317810	37.494648	-276.462677
206	2.05000000	-1077.340698	1261.133179	-69.738297	-973.877258	1280.493652	-390.279480	-1074.815186	1329.582520	-237.533524	-958.899414	1222.248047	-204.276260	-1201.622803	991.900879	-74.672356	-1010.063965	994.219666	-476.960907	-1011.394836	918.018890	-53.061317	-910.017273	811.505859	-475.318115	-1039.101196	900.862183	-107.852997	-976.043640	861.938721	-342.319489	-1179.312256	889.656372	-220.691513	-1162.203491	872.823364	-304.901917	-1170.757874	881.239868	-262.796715	-1127.879761	1040.634888	-279.481720	-937.204041	1039.826660	-217.881714	-1062.269897	692.633118	-2.014917	-1049.190674	451.703827	-48.194805	-1111.013916	335.464508	24.360411	-1132.259644	121.035667	-20.727215	-1172.951294	102.665665	-74.555222	-1037.514648	53.932362	2.750690	-1036.133545	588.071228	-427.414764	-1017.073486	403.548553	-327.816742	-1046.266724	263.497101	-380.813354	-1087.761719	61.219193	-301.328491	-1133.720581	43.196381	-261.687927	-966.237488	37.480396	-276.424408
207	2.06000000	-1075.696411	1261.246338	-70.460022	-973.677185	1280.264282	-391.558197	-1074.038574	1329.421143	-238.433243	-957.790588	1222.318604	-205.491241	-1199.198486	991.614319	-74.503891	-1010.565308	993.957642	-477.863434	-1007.459320	918.744568	-54.347034	-911.014709	810.940918	-477.052109	-1037.232422	900.987671	-108.240639	-975.069641	861.972168	-342.945679	-1177.974976	889.304871	-220.559723	-1161.144165	872.446716	-304.774689	-1169.559570	880.875793	-262.667206	-1126.985352	1040.383545	-279.673798	-935.915649	1039.916016	-218.981644	-1060.215332	693.190063	-1.690506	-1044.957153	452.317383	-47.046585	-1105.142578	335.765503	26.294552	-1124.473145	120.955109	-17.819502	-1165.281738	102.003677	-71.203178	-1028.774536	54.704624	5.191175	-1035.150513	587.804321	-427.474152	-1016.549133	403.381500	-327.724518	-1045.873291	263.329010	-380.661682	-1087.600098	61.199921	-301.009583	-1133.641846	43.227386	-261.396118	-966.150085	37.467018	-276.342712
